<svg xmlns="http://www.w3.org/2000/svg" xmlns:xlink="http://www.w3.org/1999/xlink" version="1.1" x="0px" y="0px" viewBox="0 0 100 125" style="enable-background:new 0 0 100 100;" xml:space="preserve"><g><g><g><path fill="#835c3b" d="M48.7,7.6c1,0,2.2,0.5,3,1.3L89.8,47c0.8,0.8,1.3,1.9,1.3,3c0,1.1-0.5,2.2-1.3,3L67.6,75.1c-0.6,0.6-1.6,0.6-2.2,0     c-0.6-0.6-0.6-1.6,0-2.2l22.2-22.2c0.2-0.2,0.4-0.6,0.4-0.8s-0.1-0.6-0.4-0.8L49.5,11.1c-0.2-0.2-0.6-0.4-0.8-0.4     s-0.6,0.1-0.8,0.4l-4.1,4.1c-0.2,0.2-0.4,0.6-0.4,0.8c0,0.2,0.1,0.6,0.4,0.8L76,48.9c0.6,0.6,0.6,1.6,0,2.2L43.8,83.2     c-0.2,0.2-0.4,0.6-0.4,0.8c0,0.2,0.1,0.6,0.4,0.8l4.1,4.1c0.2,0.2,0.6,0.4,0.8,0.4s0.6-0.1,0.8-0.4l5.3-5.3     c0.6-0.6,1.6-0.6,2.2,0c0.6,0.6,0.6,1.6,0,2.2l-5.3,5.3c-0.8,0.8-1.9,1.3-3,1.3s-2.2-0.5-3-1.3L41.6,87c-0.8-0.8-1.3-1.9-1.3-3     c0-1.1,0.5-2.2,1.3-3L72.7,50L41.6,18.9c-0.8-0.8-1.3-1.9-1.3-3c0-1,0.5-2.2,1.3-3l4.1-4.1C46.5,8.1,47.7,7.6,48.7,7.6z"/></g><g><path fill="#835c3b" d="M17.3,7.6c1,0,2.2,0.5,3,1.3L58.4,47c0.8,0.8,1.3,1.9,1.3,3c0,1.1-0.5,2.2-1.3,3L20.2,91.1c-0.8,0.8-1.9,1.3-3,1.3     s-2.2-0.5-3-1.3L10.2,87C9.4,86.2,9,85.1,9,84c0-1.1,0.5-2.2,1.3-3L41.3,50L28.1,36.8c-0.6-0.6-0.6-1.6,0-2.2     c0.6-0.6,1.6-0.6,2.2,0l14.2,14.2c0.6,0.6,0.6,1.6,0,2.2L12.4,83.2C12.1,83.5,12,83.8,12,84c0,0.2,0.1,0.6,0.4,0.8l4.1,4.1     c0.2,0.2,0.6,0.4,0.8,0.4s0.6-0.1,0.8-0.4l38.1-38.1c0.2-0.2,0.4-0.6,0.4-0.8s-0.1-0.6-0.4-0.8L18.1,11.1     c-0.2-0.2-0.6-0.4-0.8-0.4s-0.6,0.1-0.8,0.4l-4.1,4.1C12.1,15.4,12,15.8,12,16c0,0.2,0.1,0.6,0.4,0.8l6.9,6.9     c0.6,0.6,0.6,1.6,0,2.2c-0.6,0.6-1.6,0.6-2.2,0l-6.9-6.9C9.4,18.1,9,17,9,16c0-1,0.5-2.2,1.3-3l4.1-4.1     C15.1,8.1,16.2,7.6,17.3,7.6z"/></g></g></g></svg>