<svg xmlns="http://www.w3.org/2000/svg" xmlns:xlink="http://www.w3.org/1999/xlink" version="1.1" viewBox="0 0 96 120" x="0px" y="0px"><path d="M84.116 80.58c-0.436 0-0.884-0.144-1.252-0.436-0.86-0.688-1-1.944-0.312-2.812l7-8.752-7-8.752c-0.688-0.86-0.548-2.116 0.312-2.812 0.864-0.688 2.124-0.552 2.812 0.312l8 10c0.584 0.736 0.584 1.768 0 2.5l-8 10c-0.392 0.492-0.976 0.752-1.56 0.752z" fill="#000000"/><path d="M21.956 92.744c-0.416 0-0.828-0.128-1.18-0.392-7.328-5.388-18.6-23.64-18.892-38.892-0.136-7.352 2.344-13.276 7.18-17.12 5.64-4.476 12.536-4.848 17.996-0.972 5.396 3.832 10.12 12.804 5.7 25.492-3.312 9.492-1.724 17.752 4.364 22.672 4.888 3.944 11.868 4.72 16.584 1.836 4.764-2.908 7.72-8.204 8.096-14.552 0.544-9.060-4.276-18.532-12.896-25.332-9.896-7.804-18.74-16.792-16.532-29.584 1.264-7.324 7.784-12.4 16.232-12.632 8.804-0.252 20.576 5.288 24.348 21.696 2.084 9.080 3.14 17.156 3.98 23.64 1.58 12.14 2.52 17.976 6.684 17.976h8.5c1.1 0 2 0.896 2 2 0 1.1-0.9 2-2 2h-8.5c-7.864 0-8.972-8.532-10.652-21.456-0.832-6.404-1.868-14.368-3.916-23.26-3.232-14.052-13.12-18.796-20.34-18.592-6.484 0.176-11.46 3.916-12.396 9.312-1.852 10.732 6.148 18.72 15.064 25.76 9.792 7.728 15.052 18.196 14.416 28.716-0.464 7.668-4.108 14.128-10.008 17.724-6.208 3.796-14.92 2.916-21.18-2.14-3.54-2.852-11.168-11.212-5.628-27.088 3.692-10.596 0.028-17.888-4.24-20.916-4.016-2.852-8.944-2.536-13.192 0.84-3.876 3.084-5.78 7.756-5.668 13.912 0.256 13.572 10.488 30.764 17.256 35.744 0.892 0.648 1.084 1.904 0.424 2.796-0.38 0.528-0.984 0.812-1.604 0.812z" fill="#000000"/></svg>