<svg xmlns="http://www.w3.org/2000/svg" viewBox="0 0 26 50" x="0px" y="0px"><path fill="#835c3b" d="M290.12,1086.162 C287.684,1083.069 284.28,1080.464 281.516,1077.618 C279.221,1075.256 276.869,1072.933 274.297,1070.87 C273.089,1069.901 267.358,1066.671 271.063,1064.871 C274.49,1063.207 282.849,1073.239 284.879,1075.341 C287.482,1078.035 294.504,1082.731 294.504,1086.71 C294.504,1090.119 287.758,1093.293 285.474,1094.861 C283.496,1096.218 281.507,1097.558 279.523,1098.906 C277.883,1100.02 275.506,1103.711 273.615,1103.834 C267.449,1104.241 277.036,1095.76 278.445,1094.806 C279.744,1093.924 290.571,1086.734 290.12,1086.162 Z" transform="translate(-269 -1064)"/> </svg>