<svg xmlns="http://www.w3.org/2000/svg" xmlns:xlink="http://www.w3.org/1999/xlink" xml:space="preserve" version="1.1" style="shape-rendering:geometricPrecision;text-rendering:geometricPrecision;image-rendering:optimizeQuality;" viewBox="0 0 4.731 4.05625" x="0px" y="0px" fill-rule="evenodd" clip-rule="evenodd"><g><path class="fil0" fill="#835c3b" d="M3.589 0.912c-0.169,0.221 -0.091,0.654 -0.128,0.941 -0.036,0.277 -0.16,0.946 -0.541,0.887 -0.192,-0.218 0.518,-1.215 0.086,-1.408 -0.195,-0.079 -0.364,0.319 -0.387,0.489 -0.025,0.184 -0.048,0.367 -0.156,0.492 -0.132,0.154 -0.234,0.183 -0.207,-0.057 0.012,-0.107 0.039,-0.207 0.019,-0.294 -0.038,-0.164 -0.214,-0.227 -0.297,-0.054 -0.059,0.123 0.013,0.291 -0.096,0.412 -0.137,0.153 -0.15,0.092 -0.169,-0.039 -0.055,-0.395 -0.233,-0.115 -0.367,0.055 -0.063,0.08 -0.091,0.125 -0.192,0.047 -0.165,-0.128 -0.244,0.001 -0.391,0.116 -0.2,0.156 -0.127,0.085 -0.27,0.024 -0.174,-0.073 -0.4,0.189 -0.494,0.312 0.111,0.046 0.184,-0.077 0.282,-0.181 0.083,-0.089 0.091,-0.095 0.2,-0.034 0.071,0.039 0.113,0.073 0.234,0.001 0.072,-0.043 0.131,-0.101 0.202,-0.155 0.109,-0.082 0.105,-0.088 0.209,-0.009 0.073,0.055 0.121,0.087 0.243,-0.017 0.075,-0.064 0.091,-0.126 0.122,-0.176 0.081,-0.129 0.12,-0.103 0.146,0.019 0.034,0.159 0.08,0.363 0.288,0.093 0.139,-0.181 0.068,-0.307 0.107,-0.406 0.063,-0.159 0.145,-0.09 0.17,0.054 0.022,0.124 -0.032,0.189 -0.022,0.311 0.019,0.238 0.148,0.215 0.302,0.077 0.245,-0.22 0.158,-0.676 0.316,-0.894 0.16,-0.221 0.272,-0.082 0.269,0.145 -0.003,0.23 -0.116,0.506 -0.185,0.667 -0.207,0.487 0.074,0.663 0.365,0.33 0.404,-0.462 0.206,-1.24 0.368,-1.62 0.168,-0.394 0.269,0.017 0.286,0.219 0.047,0.566 -0.331,1.135 -0.307,1.558 0.014,0.244 0.108,0.321 0.324,0.172 0.544,-0.374 0.261,-1.984 0.43,-2.663 0.098,-0.391 0.208,-0.273 0.277,0.042 0.14,0.637 0.007,1.908 -0.202,2.511 -0.033,0.106 -0.147,0.284 -0.043,0.365 0.208,-0.802 0.369,-1.273 0.346,-2.144 -0.004,-0.171 -0.002,-1.234 -0.301,-1.088 -0.275,0.135 -0.163,1.571 -0.265,2.207 -0.026,0.164 -0.043,0.356 -0.115,0.503 -0.054,0.11 -0.251,0.406 -0.378,0.216 -0.17,-0.255 0.456,-1.195 0.254,-1.9 -0.059,-0.207 -0.153,-0.368 -0.336,-0.129z"/></g></svg>